<svg width="172" height="172" viewBox="0 0 172 172" fill="none" xmlns="http://www.w3.org/2000/svg">
<path d="M85.9998 11.4668C57.3331 11.4668 22.9331 34.4001 22.9331 74.5335V97.4668V103.2C22.9331 111.896 26.7412 118.087 30.6261 121.486C32.9948 123.559 33.9863 123.592 35.5756 124.219C37.6587 129.602 50.9749 160.533 85.9998 160.533C86.1951 160.533 86.3767 160.513 86.5709 160.511C86.5858 160.511 86.6007 160.511 86.6157 160.511C99.7471 160.361 110.219 155.54 118.239 149.067H85.9998C55.422 149.067 45.5753 118.586 45.5753 118.586L44.5787 115.596L41.5216 114.835C41.5216 114.835 40.0219 114.481 38.1735 112.864C36.325 111.247 34.3998 108.838 34.3998 103.2V97.4668H40.1331C40.1331 57.3335 97.4664 86.0001 114.666 45.8668C114.666 45.8668 131.866 61.6908 131.866 97.4668V114.667H136.558C134.21 121.358 127.938 126.133 120.4 126.133H96.9401C95.7551 122.801 92.6038 120.4 88.8664 120.4H83.1331C78.3859 120.4 74.5331 124.253 74.5331 129C74.5331 133.747 78.3859 137.6 83.1331 137.6H88.8664C89.3795 137.6 89.8785 137.53 90.3669 137.443C90.8144 137.55 91.2731 137.603 91.7331 137.6H120.4C134.684 137.6 146.582 126.995 148.697 113.278C152.314 111.35 154.8 107.587 154.8 103.2V97.4668C154.8 93.2302 152.481 89.5755 149.066 87.5902V74.5335C149.066 51.6001 137.6 22.9335 114.666 22.9335C114.666 22.9335 108.933 11.4668 85.9997 11.4668L85.9998 11.4668Z" fill="#603CB6"/>
</svg>
