<svg width="172" height="172" viewBox="0 0 172 172" fill="none" xmlns="http://www.w3.org/2000/svg">
<path d="M123.267 17.2002C105.849 17.2002 91.7335 31.3157 91.7335 48.7335C91.7335 66.1514 105.849 80.2669 123.267 80.2669C140.685 80.2669 154.8 66.1514 154.8 48.7335C154.8 31.3157 140.685 17.2002 123.267 17.2002V17.2002ZM120.389 28.6669H126.122V33.9411C131.649 34.6692 134.899 37.5593 135.26 42.2835H128.25C127.86 40.4317 126.127 39.2937 123.312 39.2937C120.605 39.2937 118.597 40.5221 118.597 42.3395C118.597 43.7442 119.817 44.6042 122.472 45.2062L127.869 46.3708C133.442 47.5977 135.943 49.9429 135.943 54.2429C135.943 59.2195 132.067 62.6777 126.133 63.5148V68.8002H120.4V63.5484C114.552 62.8375 111.044 59.8868 110.591 55.1052H117.993C118.566 57.0602 120.413 58.1734 123.435 58.1734C126.376 58.1734 128.407 56.9513 128.407 55.1052C128.407 53.7005 127.312 52.8337 124.79 52.2833L119.583 51.1187C114.01 49.8918 111.296 47.236 111.296 42.8099C111.296 38.1315 114.845 34.8175 120.389 33.9747V28.6669ZM45.8668 86.0002C43.672 86.0021 41.4978 86.424 39.4616 87.2432L11.4668 97.4669V143.334L35.6655 132.819C38.5207 131.58 41.7512 131.537 44.635 132.718L96.6046 153.949C96.6046 153.949 96.6268 153.949 96.627 153.949C97.7835 154.506 99.0499 154.797 100.333 154.8C101.818 154.795 103.277 154.405 104.566 153.669C104.567 153.669 104.599 153.669 104.6 153.669L156.121 125.047L156.11 125.036C158.836 123.522 160.528 120.651 160.533 117.534C160.533 112.784 156.683 108.934 151.933 108.934C150.671 108.938 149.424 109.221 148.283 109.762V109.751L108.933 126.134H100.333C105.083 126.134 108.933 122.283 108.933 117.534C108.933 113.811 106.537 110.512 102.999 109.359V109.348L53.1566 87.6127H53.0894C50.8274 86.5575 48.3628 86.0072 45.8668 86.0002L45.8668 86.0002Z" fill="#603CB6"/>
</svg>
