<svg width="172" height="172" viewBox="0 0 172 172" fill="none" xmlns="http://www.w3.org/2000/svg">
<path d="M85.9998 11.4668C83.8985 11.4668 81.7986 12.4854 80.5688 14.535L78.1836 18.5327C77.1516 20.2527 75.4462 21.4094 73.5141 21.9369C73.4912 21.9426 73.4698 21.9535 73.4469 21.9593C71.4918 22.4982 69.418 22.3407 67.6464 21.3546L63.5815 19.0926C59.4019 16.7706 54.2556 19.7362 54.1753 24.5236L54.0857 29.2491C54.0513 31.2443 53.1669 33.096 51.7565 34.5121C51.7393 34.5236 51.7232 34.5397 51.7118 34.5569C50.3014 35.973 48.4439 36.8517 46.4487 36.8861L41.7232 36.9645C36.9416 37.0447 33.9702 42.1966 36.2922 46.3819L38.5654 50.4691C39.5401 52.2293 39.7033 54.287 39.1701 56.2249C39.1529 56.2593 39.148 56.2913 39.1365 56.3257C38.6148 58.2463 37.4575 59.9353 35.7547 60.9616L31.7459 63.3691C27.6466 65.8287 27.6466 71.7715 31.7459 74.2311L35.7547 76.6387C37.4633 77.6649 38.6148 79.3539 39.1365 81.2746C39.148 81.309 39.1474 81.3465 39.1589 81.3866C39.6921 83.3245 39.5401 85.3879 38.5654 87.1423L36.2922 91.2296C33.9702 95.4092 36.9359 100.556 41.7232 100.636L46.4487 100.714C48.4497 100.749 50.3014 101.644 51.7118 103.055L51.7566 103.099C53.1727 104.51 54.0513 106.367 54.0857 108.362L54.1641 113.077C54.2444 117.858 59.402 120.835 63.5816 118.519L67.6688 116.246C69.4289 115.271 71.4867 115.108 73.4245 115.641C73.4589 115.652 73.4909 115.663 73.5253 115.675C75.446 116.196 77.135 117.348 78.1612 119.056L80.5688 123.065C83.0284 127.165 88.9712 127.165 91.4308 123.065L93.8383 119.056C94.8646 117.348 96.5536 116.196 98.4742 115.675C98.5086 115.663 98.5518 115.652 98.5862 115.641C100.524 115.108 102.588 115.271 104.342 116.246L108.429 118.519C112.609 120.841 117.755 117.864 117.835 113.077L117.914 108.362C117.948 106.361 118.844 104.51 120.254 103.099L120.299 103.055C121.709 101.638 123.567 100.749 125.562 100.714L130.276 100.636C135.058 100.556 138.035 95.4092 135.719 91.2296L133.445 87.1423C132.471 85.3822 132.307 83.3245 132.841 81.3866C132.852 81.3522 132.863 81.309 132.874 81.2746C133.396 79.3539 134.547 77.6649 136.256 76.6387L140.265 74.2311C144.364 71.7658 144.364 65.8345 140.265 63.3691L136.256 60.9616C134.547 59.9353 133.396 58.2463 132.874 56.3257C132.863 56.2913 132.852 56.2481 132.841 56.2137C132.307 54.2758 132.471 52.2123 133.445 50.4579L135.719 46.3707C138.041 42.1911 135.064 37.0447 130.276 36.9645L125.562 36.8861C123.561 36.8517 121.709 35.9561 120.299 34.5457L120.254 34.5009C118.838 33.0905 117.948 31.2331 117.914 29.2379L117.835 24.5236C117.755 19.742 112.609 16.7651 108.429 19.0814L104.342 21.3546C102.582 22.3292 100.524 22.4925 98.5862 21.9593C98.5518 21.9478 98.5086 21.9371 98.4742 21.9257C96.5536 21.4039 94.8646 20.2467 93.8383 18.5439L91.4308 14.535C90.201 12.4854 88.101 11.4668 85.9998 11.4668L85.9998 11.4668ZM108.933 51.6001C110.399 51.6001 111.866 52.1589 112.987 53.2798C115.228 55.5215 115.228 59.1454 112.987 61.3871L86.8396 87.5342C85.7617 88.6121 84.3053 89.2139 82.7859 89.2139C81.2666 89.2139 79.8044 88.6121 78.7323 87.5342L64.6677 73.4697C62.426 71.2279 62.426 67.6041 64.6677 65.3624C66.9095 63.1206 70.5333 63.1206 72.775 65.3624L82.786 75.3733L104.879 53.2798C106 52.1589 107.467 51.6001 108.933 51.6001V51.6001ZM44.4219 120.49L31.7683 150.802L53.9961 148.854L68.7998 166.267L81.0727 136.872C76.8014 135.651 73.1049 132.911 70.737 128.955L70.1435 127.97L69.1469 128.53C66.4981 129.998 63.5176 130.769 60.5133 130.769C53.4384 130.769 47.2829 126.538 44.4219 120.49L44.4219 120.49ZM127.578 120.49C124.717 126.538 118.561 130.781 111.486 130.781C108.488 130.781 105.501 130.003 102.853 128.53L101.856 127.97L101.263 128.955C98.8889 132.906 95.187 135.657 90.9157 136.872L103.2 166.267L118.003 148.865L140.231 150.802L127.578 120.49Z" fill="#603CB6"/>
</svg>
