<svg width="173" height="173" viewBox="0 0 173 173" fill="none" xmlns="http://www.w3.org/2000/svg">
<g clip-path="url(#clip0_3142_180122)">
<path d="M11.9668 29.1334C8.80198 29.1334 6.23345 31.7019 6.23345 34.8667C6.23345 38.0315 8.80198 40.6 11.9668 40.6H52.1001C55.2649 40.6 57.8334 43.1685 57.8334 46.3333C57.8334 49.4981 55.2649 52.0667 52.1001 52.0667H11.9668C8.80198 52.0667 6.23345 54.6352 6.23345 57.8C6.23345 60.9648 8.80198 63.5333 11.9668 63.5333H34.9001C38.0649 63.5333 40.6334 66.1019 40.6334 69.2667C40.6334 72.4315 38.0649 75 34.9001 75H11.9668C8.80198 75 6.23345 77.5685 6.23345 80.7333C6.23345 83.8981 8.80198 86.4667 11.9668 86.4667H17.7001C20.8649 86.4667 23.4334 89.0352 23.4334 92.2C23.4334 95.3648 20.8649 97.9333 17.7001 97.9333H11.9668C8.80198 97.9333 6.23345 100.502 6.23345 103.667V120.867C4.1658 120.837 2.24258 121.924 1.20023 123.71C0.157867 125.496 0.157867 127.704 1.20023 129.49C2.24259 131.276 4.16581 132.363 6.23345 132.333H17.7001H23.7246C25.143 141.996 33.4672 149.533 43.5001 149.533C53.5331 149.533 61.8572 141.996 63.2756 132.333H103.7H115.458C116.876 141.996 125.2 149.533 135.233 149.533C145.266 149.533 153.591 141.996 155.009 132.333H166.767C168.834 132.363 170.758 131.276 171.8 129.49C172.842 127.704 172.842 125.496 171.8 123.71C170.758 121.924 168.834 120.837 166.767 120.867V92.2H132.367V69.2666C132.367 66.1018 134.935 63.5333 138.1 63.5333H154.483L152.545 59.0206C150.739 54.8066 146.595 52.0666 142.008 52.0666H103.7V40.6C103.7 34.2646 98.5688 29.1333 92.2334 29.1333L11.9668 29.1334ZM43.5001 120.867C48.3177 120.867 52.1001 124.649 52.1001 129.467C52.1001 134.284 48.3177 138.067 43.5001 138.067C38.6825 138.067 34.9001 134.284 34.9001 129.467C34.9001 124.649 38.6825 120.867 43.5001 120.867ZM135.233 120.867C140.051 120.867 143.833 124.649 143.833 129.467C143.833 134.284 140.051 138.067 135.233 138.067C130.416 138.067 126.633 134.284 126.633 129.467C126.633 124.649 130.416 120.867 135.233 120.867Z" fill="#603CB6"/>
</g>
<defs>
<clipPath id="clip0_3142_180122">
<rect width="172" height="172" fill="white" transform="translate(0.5 0.466797)"/>
</clipPath>
</defs>
</svg>
